<svg xmlns="http://www.w3.org/2000/svg" xmlns:xlink="http://www.w3.org/1999/xlink" width="800" zoomAndPan="magnify" viewBox="0 0 600 599.999999" height="800" preserveAspectRatio="xMidYMid meet" version="1.0"><defs><clipPath id="b5c18a4cad"><path d="M 109.371094 125 L 475 125 L 475 490.371094 L 109.371094 490.371094 Z M 109.371094 125 " clip-rule="nonzero"/></clipPath></defs><path fill="#000000" d="M 210.039062 323.40625 L 367.316406 166.113281 L 433.625 232.425781 L 276.335938 389.703125 L 201.757812 397.984375 Z M 210.039062 323.40625 " fill-opacity="1" fill-rule="nonzero"/><path fill="#000000" d="M 387.40625 146.011719 L 414.519531 118.910156 C 415.066406 118.367188 415.636719 117.855469 416.230469 117.371094 C 416.824219 116.886719 417.441406 116.429688 418.078125 116.007812 C 418.71875 115.582031 419.375 115.1875 420.054688 114.828125 C 420.730469 114.46875 421.425781 114.140625 422.132812 113.851562 C 422.84375 113.558594 423.5625 113.300781 424.296875 113.078125 C 425.03125 112.855469 425.777344 112.671875 426.527344 112.523438 C 427.28125 112.375 428.039062 112.261719 428.804688 112.1875 C 429.566406 112.113281 430.332031 112.074219 431.097656 112.074219 C 431.867188 112.074219 432.632812 112.113281 433.394531 112.1875 C 434.160156 112.261719 434.917969 112.375 435.667969 112.523438 C 436.421875 112.671875 437.164062 112.855469 437.898438 113.078125 C 438.632812 113.300781 439.355469 113.558594 440.066406 113.851562 C 440.773438 114.140625 441.46875 114.46875 442.144531 114.828125 C 442.820312 115.1875 443.480469 115.582031 444.117188 116.007812 C 444.757812 116.429688 445.375 116.886719 445.96875 117.371094 C 446.5625 117.855469 447.132812 118.367188 447.675781 118.910156 L 480.816406 152.0625 C 481.359375 152.605469 481.875 153.175781 482.359375 153.769531 C 482.847656 154.363281 483.300781 154.980469 483.726562 155.617188 C 484.152344 156.257812 484.546875 156.914062 484.90625 157.59375 C 485.269531 158.269531 485.597656 158.964844 485.890625 159.671875 C 486.183594 160.382812 486.441406 161.105469 486.664062 161.839844 C 486.882812 162.574219 487.070312 163.316406 487.21875 164.070312 C 487.371094 164.824219 487.480469 165.582031 487.558594 166.34375 C 487.632812 167.109375 487.667969 167.875 487.667969 168.640625 C 487.667969 169.410156 487.632812 170.175781 487.558594 170.9375 C 487.480469 171.703125 487.371094 172.460938 487.21875 173.214844 C 487.070312 173.964844 486.882812 174.710938 486.664062 175.445312 C 486.441406 176.179688 486.183594 176.902344 485.890625 177.609375 C 485.597656 178.320312 485.269531 179.011719 484.90625 179.691406 C 484.546875 180.367188 484.152344 181.023438 483.726562 181.664062 C 483.300781 182.300781 482.847656 182.917969 482.359375 183.511719 C 481.875 184.105469 481.359375 184.675781 480.816406 185.21875 L 453.714844 212.320312 Z M 387.40625 146.011719 " fill-opacity="1" fill-rule="nonzero"/><g clip-path="url(#b5c18a4cad)"><path fill="#000000" d="M 460.648438 314.730469 C 459.757812 314.730469 458.882812 314.820312 458.011719 314.992188 C 457.140625 315.164062 456.296875 315.421875 455.476562 315.761719 C 454.65625 316.101562 453.878906 316.515625 453.140625 317.007812 C 452.402344 317.5 451.71875 318.0625 451.09375 318.6875 C 450.464844 319.316406 449.90625 320 449.414062 320.738281 C 448.921875 321.472656 448.503906 322.253906 448.164062 323.070312 C 447.824219 323.890625 447.570312 324.738281 447.394531 325.605469 C 447.222656 326.476562 447.136719 327.355469 447.136719 328.242188 L 447.136719 449.839844 C 447.136719 450.726562 447.050781 451.605469 446.875 452.472656 C 446.703125 453.34375 446.445312 454.1875 446.109375 455.007812 C 445.769531 455.828125 445.351562 456.605469 444.859375 457.34375 C 444.367188 458.082031 443.804688 458.765625 443.179688 459.390625 C 442.550781 460.019531 441.871094 460.578125 441.132812 461.070312 C 440.394531 461.566406 439.617188 461.980469 438.796875 462.320312 C 437.976562 462.660156 437.132812 462.917969 436.261719 463.089844 C 435.390625 463.261719 434.511719 463.347656 433.625 463.347656 L 149.902344 463.347656 C 149.015625 463.347656 148.136719 463.261719 147.265625 463.089844 C 146.394531 462.917969 145.550781 462.660156 144.730469 462.320312 C 143.914062 461.980469 143.132812 461.566406 142.394531 461.070312 C 141.660156 460.578125 140.976562 460.019531 140.347656 459.390625 C 139.722656 458.765625 139.160156 458.082031 138.667969 457.34375 C 138.175781 456.605469 137.757812 455.828125 137.417969 455.007812 C 137.082031 454.1875 136.824219 453.34375 136.652344 452.472656 C 136.476562 451.605469 136.390625 450.726562 136.390625 449.839844 L 136.390625 166.113281 C 136.390625 165.226562 136.476562 164.347656 136.652344 163.480469 C 136.824219 162.609375 137.082031 161.765625 137.417969 160.945312 C 137.757812 160.125 138.175781 159.347656 138.667969 158.609375 C 139.160156 157.871094 139.722656 157.1875 140.347656 156.5625 C 140.976562 155.933594 141.660156 155.375 142.394531 154.882812 C 143.132812 154.386719 143.914062 153.972656 144.730469 153.632812 C 145.550781 153.292969 146.394531 153.035156 147.265625 152.863281 C 148.136719 152.691406 149.015625 152.605469 149.902344 152.605469 L 271.496094 152.605469 C 272.386719 152.605469 273.261719 152.519531 274.132812 152.34375 C 275.003906 152.171875 275.847656 151.914062 276.667969 151.574219 C 277.488281 151.234375 278.265625 150.820312 279.003906 150.328125 C 279.742188 149.835938 280.425781 149.273438 281.050781 148.648438 C 281.679688 148.019531 282.238281 147.335938 282.730469 146.601562 C 283.222656 145.863281 283.640625 145.082031 283.980469 144.265625 C 284.320312 143.445312 284.574219 142.597656 284.75 141.730469 C 284.921875 140.859375 285.007812 139.980469 285.007812 139.09375 C 285.007812 138.207031 284.921875 137.328125 284.75 136.457031 C 284.574219 135.585938 284.320312 134.742188 283.980469 133.921875 C 283.640625 133.105469 283.222656 132.324219 282.730469 131.585938 C 282.238281 130.851562 281.679688 130.167969 281.050781 129.539062 C 280.425781 128.914062 279.742188 128.351562 279.003906 127.859375 C 278.265625 127.367188 277.488281 126.949219 276.667969 126.613281 C 275.847656 126.273438 275.003906 126.015625 274.132812 125.84375 C 273.261719 125.667969 272.386719 125.582031 271.496094 125.582031 L 149.902344 125.582031 C 148.574219 125.582031 147.25 125.648438 145.929688 125.777344 C 144.609375 125.910156 143.296875 126.101562 141.996094 126.363281 C 140.691406 126.621094 139.40625 126.941406 138.136719 127.328125 C 136.867188 127.714844 135.617188 128.160156 134.390625 128.667969 C 133.164062 129.175781 131.964844 129.742188 130.796875 130.367188 C 129.625 130.996094 128.488281 131.675781 127.382812 132.414062 C 126.28125 133.152344 125.214844 133.941406 124.1875 134.785156 C 123.164062 135.625 122.179688 136.515625 121.242188 137.453125 C 120.304688 138.394531 119.414062 139.375 118.570312 140.402344 C 117.726562 141.429688 116.9375 142.492188 116.199219 143.597656 C 115.464844 144.699219 114.78125 145.835938 114.15625 147.007812 C 113.53125 148.179688 112.964844 149.378906 112.457031 150.605469 C 111.949219 151.832031 111.5 153.078125 111.117188 154.347656 C 110.730469 155.621094 110.40625 156.90625 110.148438 158.207031 C 109.890625 159.507812 109.695312 160.820312 109.566406 162.140625 C 109.433594 163.464844 109.371094 164.789062 109.371094 166.113281 L 109.371094 449.839844 C 109.371094 451.164062 109.433594 452.488281 109.566406 453.8125 C 109.695312 455.132812 109.890625 456.445312 110.148438 457.746094 C 110.40625 459.046875 110.730469 460.332031 111.117188 461.605469 C 111.5 462.875 111.949219 464.121094 112.457031 465.347656 C 112.964844 466.574219 113.53125 467.773438 114.15625 468.945312 C 114.78125 470.117188 115.464844 471.253906 116.199219 472.355469 C 116.9375 473.460938 117.726562 474.523438 118.570312 475.550781 C 119.414062 476.578125 120.304688 477.558594 121.242188 478.5 C 122.179688 479.4375 123.164062 480.328125 124.1875 481.167969 C 125.214844 482.011719 126.28125 482.800781 127.382812 483.539062 C 128.488281 484.277344 129.625 484.957031 130.796875 485.585938 C 131.964844 486.210938 133.164062 486.777344 134.390625 487.285156 C 135.617188 487.792969 136.867188 488.238281 138.136719 488.625 C 139.40625 489.011719 140.691406 489.332031 141.996094 489.589844 C 143.296875 489.851562 144.609375 490.042969 145.929688 490.175781 C 147.25 490.304688 148.574219 490.371094 149.902344 490.371094 L 433.625 490.371094 C 434.953125 490.371094 436.277344 490.304688 437.597656 490.175781 C 438.917969 490.042969 440.230469 489.851562 441.53125 489.589844 C 442.835938 489.332031 444.121094 489.011719 445.390625 488.625 C 446.660156 488.238281 447.910156 487.792969 449.136719 487.285156 C 450.363281 486.777344 451.5625 486.210938 452.730469 485.585938 C 453.902344 484.957031 455.039062 484.277344 456.144531 483.539062 C 457.246094 482.800781 458.3125 482.011719 459.339844 481.167969 C 460.363281 480.328125 461.347656 479.4375 462.285156 478.5 C 463.222656 477.558594 464.113281 476.578125 464.957031 475.550781 C 465.800781 474.523438 466.589844 473.460938 467.328125 472.355469 C 468.0625 471.253906 468.746094 470.117188 469.371094 468.945312 C 469.996094 467.773438 470.5625 466.574219 471.070312 465.347656 C 471.578125 464.121094 472.027344 462.875 472.410156 461.605469 C 472.796875 460.332031 473.121094 459.046875 473.378906 457.746094 C 473.636719 456.445312 473.832031 455.132812 473.960938 453.8125 C 474.09375 452.488281 474.15625 451.164062 474.15625 449.839844 L 474.15625 328.242188 C 474.15625 327.355469 474.070312 326.476562 473.898438 325.605469 C 473.726562 324.738281 473.46875 323.890625 473.128906 323.070312 C 472.789062 322.253906 472.375 321.472656 471.878906 320.738281 C 471.386719 320 470.828125 319.316406 470.199219 318.6875 C 469.574219 318.0625 468.890625 317.5 468.152344 317.007812 C 467.414062 316.515625 466.636719 316.101562 465.816406 315.761719 C 464.996094 315.421875 464.152344 315.164062 463.28125 314.992188 C 462.414062 314.820312 461.535156 314.730469 460.648438 314.730469 Z M 460.648438 314.730469 " fill-opacity="1" fill-rule="nonzero"/></g></svg>