<svg xmlns="http://www.w3.org/2000/svg" xmlns:xlink="http://www.w3.org/1999/xlink" width="800" zoomAndPan="magnify" viewBox="0 0 600 599.999999" height="800" preserveAspectRatio="xMidYMid meet" version="1.0"><defs><clipPath id="6b6bbc9975"><path d="M 88 72 L 511 72 L 511 531.148438 L 88 531.148438 Z M 88 72 " clip-rule="nonzero"/></clipPath></defs><g clip-path="url(#6b6bbc9975)"><path fill="#000000" d="M 230.253906 531.148438 C 238.722656 531.148438 245.597656 524.269531 245.597656 515.796875 L 245.597656 416.03125 C 245.597656 411.964844 247.207031 408.050781 250.09375 405.179688 C 252.960938 402.292969 256.875 400.683594 260.941406 400.683594 C 283.773438 400.683594 314.828125 400.683594 337.660156 400.683594 C 341.726562 400.683594 345.636719 402.292969 348.507812 405.179688 C 351.390625 408.050781 353.003906 411.964844 353.003906 416.03125 C 353.003906 416.03125 353.003906 515.796875 353.003906 515.796875 C 353.003906 524.269531 359.875 531.148438 368.347656 531.148438 L 464.230469 531.148438 C 489.652344 531.148438 510.261719 510.535156 510.261719 485.101562 C 510.261719 423.046875 510.261719 284.628906 510.261719 237.96875 C 510.261719 223.1875 503.15625 209.296875 491.171875 200.640625 C 457.402344 176.238281 365.355469 109.746094 326.242188 81.488281 C 310.164062 69.867188 288.4375 69.867188 272.355469 81.488281 C 233.246094 109.746094 141.199219 176.238281 107.425781 200.640625 C 95.441406 209.296875 88.339844 223.1875 88.339844 237.96875 C 88.339844 284.628906 88.339844 423.046875 88.339844 485.101562 C 88.339844 510.535156 108.945312 531.148438 134.371094 531.148438 C 134.371094 531.148438 230.253906 531.148438 230.253906 531.148438 Z M 383.691406 500.449219 L 464.230469 500.449219 C 472.699219 500.449219 479.574219 493.574219 479.574219 485.101562 C 479.574219 423.046875 479.574219 284.628906 479.574219 237.96875 C 479.574219 233.042969 477.210938 228.421875 473.203125 225.535156 C 439.433594 201.132812 347.386719 134.625 308.277344 106.382812 C 302.921875 102.5 295.679688 102.5 290.324219 106.382812 C 251.210938 134.625 159.164062 201.132812 125.394531 225.535156 C 121.390625 228.421875 119.027344 233.042969 119.027344 237.96875 C 119.027344 284.628906 119.027344 423.046875 119.027344 485.101562 C 119.027344 493.574219 125.898438 500.449219 134.371094 500.449219 L 214.910156 500.449219 L 214.910156 416.03125 C 214.910156 403.8125 219.757812 392.101562 228.394531 383.476562 C 237.019531 374.835938 248.726562 369.984375 260.941406 369.984375 C 283.773438 369.984375 314.828125 369.984375 337.660156 369.984375 C 349.871094 369.984375 361.578125 374.835938 370.203125 383.476562 C 378.839844 392.101562 383.691406 403.8125 383.691406 416.03125 Z M 383.691406 500.449219 " fill-opacity="1" fill-rule="evenodd"/></g></svg>