<svg xmlns="http://www.w3.org/2000/svg" xmlns:xlink="http://www.w3.org/1999/xlink" width="800" zoomAndPan="magnify" viewBox="0 0 600 599.999999" height="800" preserveAspectRatio="xMidYMid meet" version="1.0"><defs><clipPath id="1e9832678a"><path d="M 36.480469 127.066406 L 563.730469 127.066406 L 563.730469 472.816406 L 36.480469 472.816406 Z M 36.480469 127.066406 " clip-rule="nonzero"/></clipPath></defs><g clip-path="url(#1e9832678a)"><path fill="#000000" d="M 530.777344 127.070312 L 69.433594 127.070312 C 51.3125 127.070312 36.480469 141.886719 36.480469 159.996094 L 36.480469 439.886719 C 36.480469 457.996094 51.3125 472.8125 69.433594 472.8125 L 530.777344 472.8125 C 548.902344 472.8125 563.730469 457.996094 563.730469 439.886719 L 563.730469 159.996094 C 563.730469 141.886719 548.902344 127.070312 530.777344 127.070312 Z M 155.9375 217.621094 C 176.410156 217.621094 193.007812 234.207031 193.007812 254.667969 C 193.007812 275.125 176.410156 291.710938 155.9375 291.710938 C 135.460938 291.710938 118.863281 275.125 118.863281 254.667969 C 118.863281 234.207031 135.460938 217.621094 155.9375 217.621094 Z M 230.082031 370.207031 C 230.082031 385.957031 215.328125 398.726562 197.128906 398.726562 L 114.746094 398.726562 C 96.542969 398.726562 81.792969 385.957031 81.792969 370.207031 C 81.792969 354.453125 81.792969 341.6875 81.792969 341.6875 C 81.792969 319.109375 95.195312 299.398438 114.464844 288.460938 C 124.292969 300.480469 139.230469 308.171875 155.9375 308.171875 C 172.644531 308.171875 187.582031 300.480469 197.40625 288.460938 C 216.679688 299.398438 230.082031 319.109375 230.082031 341.6875 Z M 506.0625 357.566406 L 324.820312 357.566406 C 320.273438 357.566406 316.582031 353.878906 316.582031 349.332031 C 316.582031 344.785156 320.273438 341.101562 324.820312 341.101562 L 506.0625 341.101562 C 510.613281 341.101562 514.300781 344.785156 514.300781 349.332031 C 514.300781 353.878906 510.613281 357.566406 506.0625 357.566406 Z M 506.0625 308.171875 L 324.820312 308.171875 C 320.273438 308.171875 316.582031 304.488281 316.582031 299.941406 C 316.582031 295.394531 320.273438 291.710938 324.820312 291.710938 L 506.0625 291.710938 C 510.613281 291.710938 514.300781 295.394531 514.300781 299.941406 C 514.300781 304.488281 510.613281 308.171875 506.0625 308.171875 Z M 506.0625 258.78125 L 324.820312 258.78125 C 320.273438 258.78125 316.582031 255.09375 316.582031 250.550781 C 316.582031 246.003906 320.273438 242.316406 324.820312 242.316406 L 506.0625 242.316406 C 510.613281 242.316406 514.300781 246.003906 514.300781 250.550781 C 514.300781 255.09375 510.613281 258.78125 506.0625 258.78125 Z M 506.0625 258.78125 " fill-opacity="1" fill-rule="nonzero"/></g></svg>