<svg xmlns="http://www.w3.org/2000/svg" xmlns:xlink="http://www.w3.org/1999/xlink" width="1000" zoomAndPan="magnify" viewBox="0 0 750 749.999995" height="1000" preserveAspectRatio="xMidYMid meet" version="1.0"><defs><g/></defs><path fill="#171710" d="M 287.6875 680.160156 C 237.105469 673.226562 182.046875 661.132812 151.683594 622.308594 C 135.78125 601.925781 128.761719 576.464844 125.207031 551.347656 C 119.457031 510.832031 121.742188 469.726562 123.941406 428.875 C 129.605469 325.351562 135.273438 221.738281 147.621094 118.636719 C 150.242188 96.816406 155.742188 71.527344 176.71875 62.054688 C 185.007812 58.332031 194.5625 57.824219 203.78125 57.488281 C 272.628906 54.695312 341.476562 53.34375 410.410156 53.511719 C 452.363281 53.679688 495.582031 54.527344 534.234375 69.835938 C 621.859375 104.511719 618.984375 186.046875 621.015625 261.832031 C 623.550781 356.050781 626.171875 450.359375 628.710938 544.582031 C 629.894531 585.515625 630.148438 629.328125 606.210938 663.5 C 597.839844 675.59375 586.167969 686.167969 571.789062 691.242188 C 560.03125 695.46875 547.089844 695.722656 534.488281 695.894531 C 452.023438 696.65625 369.390625 691.410156 287.6875 680.160156 Z M 287.6875 680.160156 " fill-opacity="1" fill-rule="nonzero"/><g fill="#f3f5f9" fill-opacity="1"><g transform="translate(180.795046, 360.447952)"><g><path d="M 13.371094 -1.976562 C 21 1.976562 34.652344 -0.28125 40.207031 -6.875 C 47.269531 -15.160156 46.703125 -31.734375 46.421875 -41.996094 C 46.515625 -45.949219 46.609375 -51.414062 43.316406 -54.238281 C 39.171875 -57.722656 34.558594 -54.707031 33.144531 -50.1875 C 31.636719 -45.199219 33.617188 -38.324219 33.617188 -33.050781 C 33.617188 -27.871094 33.710938 -22.035156 31.355469 -17.230469 C 28.71875 -11.957031 24.105469 -13.371094 22.035156 -18.550781 C 19.867188 -24.105469 20.714844 -31.167969 20.808594 -37.003906 C 21 -43.785156 22.597656 -59.039062 12.148438 -59.132812 C -1.128906 -59.132812 1.316406 -39.359375 2.261719 -31.167969 C 3.484375 -21.28125 3.105469 -7.25 13.371094 -1.976562 Z M 13.371094 -1.976562 "/></g></g></g><g fill="#f3f5f9" fill-opacity="1"><g transform="translate(248.208933, 360.447952)"><g><path d="M 4.425781 -1.789062 C 13.371094 7.722656 17.515625 -23.824219 18.457031 -27.683594 C 22.316406 -21.375 37.757812 10.828125 46.328125 -7.628906 C 51.695312 -19.019531 50.1875 -38.230469 48.398438 -49.90625 C 47.550781 -56.214844 40.867188 -58.851562 36.253906 -54.050781 C 31.449219 -48.964844 33.425781 -38.984375 33.804688 -32.863281 C 30.039062 -38.699219 27.964844 -45.105469 24.386719 -50.847656 C 21.5625 -55.554688 15.441406 -59.511719 9.886719 -56.78125 C 1.035156 -52.355469 2.449219 -32.390625 1.976562 -24.011719 C 1.695312 -18.171875 0.09375 -6.496094 4.425781 -1.789062 Z M 4.425781 -1.789062 "/></g></g></g><g fill="#f3f5f9" fill-opacity="1"><g transform="translate(319.106347, 360.447952)"><g><path d="M 13.371094 -1.976562 C 21 1.976562 34.652344 -0.28125 40.207031 -6.875 C 47.269531 -15.160156 46.703125 -31.734375 46.421875 -41.996094 C 46.515625 -45.949219 46.609375 -51.414062 43.316406 -54.238281 C 39.171875 -57.722656 34.558594 -54.707031 33.144531 -50.1875 C 31.636719 -45.199219 33.617188 -38.324219 33.617188 -33.050781 C 33.617188 -27.871094 33.710938 -22.035156 31.355469 -17.230469 C 28.71875 -11.957031 24.105469 -13.371094 22.035156 -18.550781 C 19.867188 -24.105469 20.714844 -31.167969 20.808594 -37.003906 C 21 -43.785156 22.597656 -59.039062 12.148438 -59.132812 C -1.128906 -59.132812 1.316406 -39.359375 2.261719 -31.167969 C 3.484375 -21.28125 3.105469 -7.25 13.371094 -1.976562 Z M 13.371094 -1.976562 "/></g></g></g><g fill="#f3f5f9" fill-opacity="1"><g transform="translate(386.520227, 360.447952)"><g><path d="M 15.726562 -0.566406 C 25.421875 0.941406 37.476562 0.09375 41.808594 -10.261719 C 43.785156 -15.066406 43.597656 -20.902344 41.429688 -25.519531 C 38.890625 -31.074219 33.898438 -33.238281 29.566406 -37.003906 C 17.984375 -46.796875 30.132812 -56.121094 40.300781 -59.320312 C 46.046875 -61.207031 44.066406 -67.324219 40.207031 -69.773438 C 35.59375 -72.691406 29 -72.128906 24.011719 -70.621094 C 13.746094 -67.703125 5.933594 -59.320312 4.425781 -48.585938 C 2.917969 -37.757812 7.628906 -30.039062 17.136719 -25.421875 C 20.621094 -23.730469 26.835938 -20.433594 23.824219 -15.535156 C 20.246094 -9.605469 13.277344 -15.441406 8.664062 -15.441406 C 3.203125 -15.535156 -0.847656 -11.109375 2.730469 -5.933594 C 5.367188 -2.164062 11.488281 -1.316406 15.726562 -0.566406 Z M 15.726562 -0.566406 "/></g></g></g><g fill="#f3f5f9" fill-opacity="1"><g transform="translate(451.203776, 360.447952)"><g><path d="M 15.632812 -0.1875 C 21.46875 -0.472656 27.308594 -0.375 33.050781 -0.660156 C 37.851562 -0.941406 41.429688 -1.601562 43.316406 -6.308594 C 44.445312 -9.417969 45.105469 -15.066406 41.996094 -17.421875 C 38.511719 -19.960938 33.050781 -18.832031 29.097656 -19.019531 C 25.519531 -19.210938 16.289062 -22.128906 21.65625 -27.117188 C 24.859375 -30.132812 29.847656 -26.554688 33.617188 -27.589844 C 37.757812 -28.8125 38.699219 -33.523438 38.230469 -37.382812 C 37.949219 -40.679688 36.816406 -42.5625 33.617188 -43.785156 C 30.507812 -44.914062 24.011719 -42.84375 21.5625 -44.632812 C 18.265625 -46.988281 21.28125 -51.414062 23.632812 -51.882812 C 27.210938 -52.730469 31.074219 -50.28125 34.839844 -51.789062 C 38.136719 -53.105469 39.832031 -56.214844 39.359375 -59.792969 C 38.699219 -64.785156 34.558594 -65.632812 30.226562 -66.289062 C 23.824219 -67.230469 6.875 -70.433594 4.050781 -62.523438 C 2.824219 -59.132812 3.484375 -54.425781 3.296875 -50.941406 C 3.105469 -44.632812 2.824219 -38.324219 2.542969 -32.015625 C 2.261719 -26.648438 2.070312 -21.28125 1.789062 -15.914062 C 1.601562 -11.675781 0.375 -5.554688 3.765625 -2.261719 C 6.875 0.753906 11.863281 -0.09375 15.632812 -0.1875 Z M 15.632812 -0.1875 "/></g></g></g><g fill="#f3f5f9" fill-opacity="1"><g transform="translate(516.263915, 360.447952)"><g><path d="M 2.730469 -8.003906 C 5.273438 8.097656 32.578125 -3.953125 39.359375 -11.015625 C 50 -22.128906 55.933594 -42.183594 47.363281 -56.496094 C 43.125 -63.746094 34.652344 -66.476562 26.742188 -66.949219 C 19.960938 -67.421875 8.851562 -66.949219 4.425781 -60.921875 C -0.09375 -54.613281 1.789062 -43.785156 2.070312 -36.535156 C 2.449219 -27.210938 1.316406 -17.230469 2.730469 -8.003906 Z M 21.84375 -21.46875 C 17.042969 -22.503906 19.113281 -33.144531 19.113281 -36.628906 C 19.210938 -42.277344 17.609375 -48.683594 25.046875 -46.796875 C 30.695312 -45.480469 35.121094 -40.773438 33.804688 -34.746094 C 32.957031 -30.886719 27.210938 -20.246094 21.84375 -21.46875 Z M 21.84375 -21.46875 "/></g></g></g><g fill="#f3f5f9" fill-opacity="1"><g transform="translate(161.549331, 438.405276)"><g><path d="M 9.039062 -7.4375 C 25.046875 8.472656 55.554688 -2.449219 48.683594 -26.929688 C 46.515625 -34.558594 31.355469 -40.113281 27.210938 -31.734375 C 25.894531 -29.097656 25.988281 -24.199219 28.058594 -22.035156 C 29.847656 -20.054688 34.839844 -20.902344 32.578125 -17.230469 C 30.789062 -14.40625 25.421875 -15.347656 23.070312 -16.476562 C 18.644531 -18.738281 16.761719 -23.824219 16.949219 -28.625 C 17.421875 -38.042969 24.671875 -45.199219 33.238281 -47.738281 C 39.832031 -49.71875 40.679688 -56.875 35.40625 -62.054688 C 27.683594 -69.492188 14.21875 -56.78125 9.699219 -50.847656 C 0.375 -38.792969 -2.636719 -19.113281 9.039062 -7.4375 Z M 9.039062 -7.4375 "/></g></g></g><g fill="#f3f5f9" fill-opacity="1"><g transform="translate(232.070155, 438.405276)"><g><path d="M 31.355469 -1.507812 C 45.480469 -6.875 46.894531 -27.402344 44.539062 -40.113281 C 41.902344 -54.238281 29 -59.980469 15.820312 -55.273438 C -1.128906 -49.246094 -0.28125 -30.601562 4.050781 -16.289062 C 5.933594 -9.980469 7.910156 -4.519531 14.3125 -1.695312 C 19.492188 0.566406 25.988281 0.472656 31.355469 -1.507812 Z M 19.773438 -14.21875 C 16.101562 -17.984375 16.382812 -28.625 17.890625 -33.425781 C 19.019531 -36.816406 24.859375 -41.527344 28.90625 -39.359375 C 34.273438 -36.347656 32.484375 -23.351562 31.261719 -18.550781 C 29.753906 -12.996094 25.140625 -8.757812 19.773438 -14.21875 Z M 19.773438 -14.21875 "/></g></g></g><g fill="#f3f5f9" fill-opacity="1"><g transform="translate(298.354239, 438.405276)"><g><path d="M 31.355469 -1.507812 C 45.480469 -6.875 46.894531 -27.402344 44.539062 -40.113281 C 41.902344 -54.238281 29 -59.980469 15.820312 -55.273438 C -1.128906 -49.246094 -0.28125 -30.601562 4.050781 -16.289062 C 5.933594 -9.980469 7.910156 -4.519531 14.3125 -1.695312 C 19.492188 0.566406 25.988281 0.472656 31.355469 -1.507812 Z M 19.773438 -14.21875 C 16.101562 -17.984375 16.382812 -28.625 17.890625 -33.425781 C 19.019531 -36.816406 24.859375 -41.527344 28.90625 -39.359375 C 34.273438 -36.347656 32.484375 -23.351562 31.261719 -18.550781 C 29.753906 -12.996094 25.140625 -8.757812 19.773438 -14.21875 Z M 19.773438 -14.21875 "/></g></g></g><g fill="#f3f5f9" fill-opacity="1"><g transform="translate(364.638314, 438.405276)"><g><path d="M 2.730469 -8.003906 C 5.273438 8.097656 32.578125 -3.953125 39.359375 -11.015625 C 50 -22.128906 55.933594 -42.183594 47.363281 -56.496094 C 43.125 -63.746094 34.652344 -66.476562 26.742188 -66.949219 C 19.960938 -67.421875 8.851562 -66.949219 4.425781 -60.921875 C -0.09375 -54.613281 1.789062 -43.785156 2.070312 -36.535156 C 2.449219 -27.210938 1.316406 -17.230469 2.730469 -8.003906 Z M 21.84375 -21.46875 C 17.042969 -22.503906 19.113281 -33.144531 19.113281 -36.628906 C 19.210938 -42.277344 17.609375 -48.683594 25.046875 -46.796875 C 30.695312 -45.480469 35.121094 -40.773438 33.804688 -34.746094 C 32.957031 -30.886719 27.210938 -20.246094 21.84375 -21.46875 Z M 21.84375 -21.46875 "/></g></g></g><g fill="#f3f5f9" fill-opacity="1"><g transform="translate(436.947983, 438.405276)"><g><path d="M 1.695312 -59.417969 C 5.554688 -46.421875 22.882812 -57.910156 19.867188 -67.421875 C 21.375 -72.128906 13.089844 -73.917969 10.167969 -73.070312 C 4.707031 -71.5625 0.09375 -64.972656 1.695312 -59.417969 Z M 14.03125 -1.316406 C 16.855469 -3.390625 17.230469 -6.875 17.890625 -10.074219 C 19.960938 -20.621094 22.316406 -35.40625 17.609375 -45.574219 C 15.441406 -50.1875 9.980469 -53.390625 5.933594 -49.152344 C 3.011719 -46.046875 3.011719 -39.265625 2.636719 -35.40625 C 1.976562 -27.023438 -0.09375 -12.804688 3.578125 -4.894531 C 5.554688 -0.753906 9.886719 1.601562 14.03125 -1.316406 Z M 14.03125 -1.316406 "/></g></g></g><g fill="#f3f5f9" fill-opacity="1"><g transform="translate(478.094104, 438.405276)"><g><path d="M 15.632812 -0.1875 C 21.46875 -0.472656 27.308594 -0.375 33.050781 -0.660156 C 37.851562 -0.941406 41.429688 -1.601562 43.316406 -6.308594 C 44.445312 -9.417969 45.105469 -15.066406 41.996094 -17.421875 C 38.511719 -19.960938 33.050781 -18.832031 29.097656 -19.019531 C 25.519531 -19.210938 16.289062 -22.128906 21.65625 -27.117188 C 24.859375 -30.132812 29.847656 -26.554688 33.617188 -27.589844 C 37.757812 -28.8125 38.699219 -33.523438 38.230469 -37.382812 C 37.949219 -40.679688 36.816406 -42.5625 33.617188 -43.785156 C 30.507812 -44.914062 24.011719 -42.84375 21.5625 -44.632812 C 18.265625 -46.988281 21.28125 -51.414062 23.632812 -51.882812 C 27.210938 -52.730469 31.074219 -50.28125 34.839844 -51.789062 C 38.136719 -53.105469 39.832031 -56.214844 39.359375 -59.792969 C 38.699219 -64.785156 34.558594 -65.632812 30.226562 -66.289062 C 23.824219 -67.230469 6.875 -70.433594 4.050781 -62.523438 C 2.824219 -59.132812 3.484375 -54.425781 3.296875 -50.941406 C 3.105469 -44.632812 2.824219 -38.324219 2.542969 -32.015625 C 2.261719 -26.648438 2.070312 -21.28125 1.789062 -15.914062 C 1.601562 -11.675781 0.375 -5.554688 3.765625 -2.261719 C 6.875 0.753906 11.863281 -0.09375 15.632812 -0.1875 Z M 15.632812 -0.1875 "/></g></g></g><g fill="#f3f5f9" fill-opacity="1"><g transform="translate(543.154244, 438.405276)"><g><path d="M 15.726562 -0.566406 C 25.421875 0.941406 37.476562 0.09375 41.808594 -10.261719 C 43.785156 -15.066406 43.597656 -20.902344 41.429688 -25.519531 C 38.890625 -31.074219 33.898438 -33.238281 29.566406 -37.003906 C 17.984375 -46.796875 30.132812 -56.121094 40.300781 -59.320312 C 46.046875 -61.207031 44.066406 -67.324219 40.207031 -69.773438 C 35.59375 -72.691406 29 -72.128906 24.011719 -70.621094 C 13.746094 -67.703125 5.933594 -59.320312 4.425781 -48.585938 C 2.917969 -37.757812 7.628906 -30.039062 17.136719 -25.421875 C 20.621094 -23.730469 26.835938 -20.433594 23.824219 -15.535156 C 20.246094 -9.605469 13.277344 -15.441406 8.664062 -15.441406 C 3.203125 -15.535156 -0.847656 -11.109375 2.730469 -5.933594 C 5.367188 -2.164062 11.488281 -1.316406 15.726562 -0.566406 Z M 15.726562 -0.566406 "/></g></g></g></svg>