<svg xmlns="http://www.w3.org/2000/svg" xmlns:xlink="http://www.w3.org/1999/xlink" width="800" zoomAndPan="magnify" viewBox="0 0 600 599.999999" height="800" preserveAspectRatio="xMidYMid meet" version="1.0"><defs><clipPath id="45913a9223"><path d="M 242 126.171875 L 493.105469 126.171875 L 493.105469 474.171875 L 242 474.171875 Z M 242 126.171875 " clip-rule="nonzero"/></clipPath><clipPath id="9104914e9b"><path d="M 106.890625 223 L 416 223 L 416 378 L 106.890625 378 Z M 106.890625 223 " clip-rule="nonzero"/></clipPath></defs><g clip-path="url(#45913a9223)"><path fill="#000000" d="M 300.015625 474.171875 L 435.203125 474.171875 C 437.097656 474.167969 438.992188 474.074219 440.878906 473.886719 C 442.765625 473.699219 444.640625 473.417969 446.5 473.046875 C 448.359375 472.675781 450.199219 472.214844 452.011719 471.660156 C 453.828125 471.109375 455.609375 470.46875 457.363281 469.742188 C 459.117188 469.011719 460.828125 468.199219 462.5 467.304688 C 464.171875 466.410156 465.796875 465.433594 467.375 464.378906 C 468.953125 463.324219 470.472656 462.191406 471.941406 460.988281 C 473.40625 459.78125 474.808594 458.507812 476.152344 457.167969 C 477.492188 455.824219 478.765625 454.417969 479.96875 452.949219 C 481.171875 451.480469 482.300781 449.960938 483.355469 448.378906 C 484.410156 446.800781 485.382812 445.175781 486.277344 443.5 C 487.175781 441.824219 487.984375 440.113281 488.710938 438.359375 C 489.4375 436.601562 490.078125 434.816406 490.628906 433 C 491.179688 431.183594 491.644531 429.34375 492.015625 427.480469 C 492.386719 425.621094 492.664062 423.742188 492.851562 421.855469 C 493.039062 419.964844 493.136719 418.070312 493.136719 416.171875 L 493.136719 184.171875 C 493.136719 182.273438 493.039062 180.378906 492.851562 178.488281 C 492.664062 176.597656 492.386719 174.722656 492.015625 172.859375 C 491.644531 170.996094 491.179688 169.15625 490.628906 167.339844 C 490.078125 165.523438 489.4375 163.738281 488.710938 161.984375 C 487.984375 160.230469 487.175781 158.515625 486.277344 156.839844 C 485.382812 155.167969 484.410156 153.539062 483.355469 151.960938 C 482.300781 150.382812 481.171875 148.859375 479.96875 147.390625 C 478.765625 145.925781 477.492188 144.519531 476.152344 143.175781 C 474.808594 141.832031 473.40625 140.558594 471.941406 139.355469 C 470.472656 138.148438 468.953125 137.019531 467.375 135.964844 C 465.796875 134.90625 464.171875 133.933594 462.5 133.035156 C 460.828125 132.140625 459.117188 131.328125 457.363281 130.601562 C 455.609375 129.875 453.828125 129.234375 452.011719 128.679688 C 450.199219 128.128906 448.359375 127.667969 446.5 127.296875 C 444.640625 126.921875 442.765625 126.644531 440.878906 126.457031 C 438.992188 126.269531 437.097656 126.171875 435.203125 126.171875 L 300.015625 126.171875 C 298.121094 126.171875 296.226562 126.269531 294.339844 126.457031 C 292.453125 126.644531 290.578125 126.921875 288.71875 127.296875 C 286.859375 127.667969 285.019531 128.128906 283.207031 128.679688 C 281.390625 129.234375 279.605469 129.875 277.855469 130.601562 C 276.101562 131.328125 274.390625 132.140625 272.71875 133.035156 C 271.042969 133.933594 269.421875 134.90625 267.84375 135.964844 C 266.265625 137.019531 264.746094 138.148438 263.277344 139.355469 C 261.8125 140.558594 260.40625 141.832031 259.066406 143.175781 C 257.726562 144.519531 256.453125 145.925781 255.25 147.390625 C 254.046875 148.859375 252.917969 150.382812 251.863281 151.960938 C 250.808594 153.539062 249.832031 155.167969 248.9375 156.839844 C 248.042969 158.515625 247.234375 160.230469 246.507812 161.984375 C 245.78125 163.738281 245.140625 165.523438 244.589844 167.339844 C 244.035156 169.15625 243.574219 170.996094 243.203125 172.859375 C 242.832031 174.722656 242.550781 176.597656 242.363281 178.488281 C 242.175781 180.378906 242.082031 182.273438 242.082031 184.171875 L 242.082031 222.835938 C 242.082031 223.472656 242.113281 224.101562 242.171875 224.734375 C 242.234375 225.363281 242.328125 225.988281 242.453125 226.609375 C 242.574219 227.230469 242.730469 227.84375 242.914062 228.449219 C 243.097656 229.054688 243.308594 229.652344 243.550781 230.234375 C 243.792969 230.820312 244.0625 231.394531 244.359375 231.953125 C 244.660156 232.507812 244.984375 233.050781 245.335938 233.578125 C 245.6875 234.105469 246.0625 234.613281 246.464844 235.101562 C 246.867188 235.59375 247.289062 236.0625 247.738281 236.507812 C 248.183594 236.957031 248.652344 237.378906 249.140625 237.78125 C 249.628906 238.183594 250.136719 238.5625 250.664062 238.914062 C 251.191406 239.265625 251.730469 239.589844 252.289062 239.886719 C 252.847656 240.1875 253.417969 240.457031 254.003906 240.699219 C 254.585938 240.941406 255.179688 241.15625 255.785156 241.339844 C 256.390625 241.523438 257.003906 241.675781 257.625 241.800781 C 258.246094 241.921875 258.871094 242.015625 259.5 242.078125 C 260.128906 242.140625 260.761719 242.171875 261.394531 242.171875 C 262.023438 242.171875 262.65625 242.140625 263.285156 242.078125 C 263.914062 242.015625 264.539062 241.921875 265.160156 241.800781 C 265.78125 241.675781 266.394531 241.523438 267 241.339844 C 267.605469 241.15625 268.199219 240.941406 268.785156 240.699219 C 269.367188 240.457031 269.9375 240.1875 270.496094 239.886719 C 271.054688 239.589844 271.597656 239.265625 272.121094 238.914062 C 272.648438 238.5625 273.15625 238.183594 273.644531 237.78125 C 274.132812 237.378906 274.601562 236.957031 275.046875 236.507812 C 275.496094 236.0625 275.921875 235.59375 276.320312 235.101562 C 276.722656 234.613281 277.097656 234.105469 277.449219 233.578125 C 277.800781 233.050781 278.125 232.507812 278.425781 231.953125 C 278.722656 231.394531 278.992188 230.820312 279.234375 230.234375 C 279.476562 229.652344 279.691406 229.054688 279.875 228.449219 C 280.058594 227.84375 280.210938 227.230469 280.332031 226.609375 C 280.457031 225.988281 280.550781 225.363281 280.613281 224.734375 C 280.671875 224.101562 280.703125 223.472656 280.703125 222.835938 L 280.703125 184.171875 C 280.703125 183.539062 280.734375 182.90625 280.796875 182.277344 C 280.859375 181.644531 280.953125 181.019531 281.074219 180.398438 C 281.199219 179.777344 281.351562 179.164062 281.535156 178.558594 C 281.71875 177.953125 281.933594 177.355469 282.175781 176.773438 C 282.417969 176.1875 282.6875 175.617188 282.984375 175.058594 C 283.285156 174.5 283.609375 173.957031 283.960938 173.429688 C 284.3125 172.902344 284.6875 172.394531 285.089844 171.90625 C 285.488281 171.417969 285.914062 170.949219 286.359375 170.5 C 286.808594 170.050781 287.277344 169.628906 287.765625 169.226562 C 288.253906 168.824219 288.761719 168.449219 289.289062 168.097656 C 289.8125 167.742188 290.355469 167.417969 290.914062 167.121094 C 291.472656 166.820312 292.042969 166.550781 292.625 166.308594 C 293.210938 166.066406 293.804688 165.855469 294.410156 165.671875 C 295.015625 165.488281 295.628906 165.332031 296.25 165.210938 C 296.871094 165.085938 297.496094 164.992188 298.125 164.929688 C 298.753906 164.867188 299.382812 164.835938 300.015625 164.835938 L 435.203125 164.835938 C 435.832031 164.835938 436.464844 164.867188 437.09375 164.929688 C 437.722656 164.992188 438.347656 165.085938 438.96875 165.210938 C 439.589844 165.332031 440.203125 165.488281 440.808594 165.671875 C 441.414062 165.855469 442.007812 166.066406 442.589844 166.308594 C 443.175781 166.550781 443.746094 166.820312 444.304688 167.121094 C 444.863281 167.417969 445.40625 167.742188 445.929688 168.097656 C 446.457031 168.449219 446.964844 168.824219 447.453125 169.226562 C 447.941406 169.628906 448.410156 170.050781 448.855469 170.5 C 449.304688 170.949219 449.726562 171.417969 450.128906 171.90625 C 450.53125 172.394531 450.90625 172.902344 451.257812 173.429688 C 451.609375 173.957031 451.933594 174.5 452.234375 175.058594 C 452.53125 175.617188 452.800781 176.1875 453.042969 176.773438 C 453.285156 177.359375 453.5 177.953125 453.683594 178.558594 C 453.867188 179.164062 454.019531 179.777344 454.140625 180.398438 C 454.265625 181.019531 454.359375 181.644531 454.421875 182.277344 C 454.480469 182.90625 454.511719 183.539062 454.511719 184.171875 L 454.511719 416.171875 C 454.511719 416.804688 454.480469 417.4375 454.421875 418.066406 C 454.359375 418.695312 454.265625 419.320312 454.140625 419.941406 C 454.019531 420.5625 453.867188 421.175781 453.683594 421.78125 C 453.5 422.390625 453.285156 422.984375 453.042969 423.570312 C 452.800781 424.15625 452.53125 424.726562 452.234375 425.285156 C 451.933594 425.84375 451.609375 426.386719 451.257812 426.910156 C 450.90625 427.4375 450.53125 427.945312 450.128906 428.4375 C 449.726562 428.925781 449.304688 429.394531 448.855469 429.839844 C 448.410156 430.289062 447.941406 430.714844 447.453125 431.117188 C 446.964844 431.515625 446.457031 431.894531 445.929688 432.246094 C 445.40625 432.597656 444.863281 432.921875 444.304688 433.222656 C 443.746094 433.519531 443.175781 433.789062 442.589844 434.03125 C 442.007812 434.273438 441.414062 434.488281 440.808594 434.671875 C 440.203125 434.855469 439.589844 435.007812 438.96875 435.132812 C 438.347656 435.257812 437.722656 435.347656 437.09375 435.410156 C 436.464844 435.472656 435.832031 435.503906 435.203125 435.503906 L 300.015625 435.503906 C 299.382812 435.503906 298.753906 435.472656 298.125 435.410156 C 297.496094 435.347656 296.871094 435.257812 296.25 435.132812 C 295.628906 435.007812 295.015625 434.855469 294.410156 434.671875 C 293.804688 434.488281 293.210938 434.273438 292.625 434.03125 C 292.042969 433.789062 291.472656 433.519531 290.914062 433.222656 C 290.355469 432.921875 289.8125 432.597656 289.289062 432.246094 C 288.761719 431.894531 288.253906 431.515625 287.765625 431.117188 C 287.277344 430.714844 286.808594 430.289062 286.359375 429.839844 C 285.914062 429.394531 285.488281 428.925781 285.089844 428.4375 C 284.6875 427.945312 284.3125 427.4375 283.960938 426.910156 C 283.609375 426.386719 283.285156 425.84375 282.984375 425.285156 C 282.6875 424.726562 282.417969 424.15625 282.175781 423.570312 C 281.933594 422.984375 281.71875 422.390625 281.535156 421.78125 C 281.351562 421.175781 281.199219 420.5625 281.074219 419.941406 C 280.953125 419.320312 280.859375 418.695312 280.796875 418.066406 C 280.734375 417.4375 280.703125 416.804688 280.703125 416.171875 L 280.703125 377.503906 C 280.703125 376.871094 280.671875 376.238281 280.613281 375.609375 C 280.550781 374.980469 280.457031 374.355469 280.332031 373.734375 C 280.210938 373.113281 280.058594 372.5 279.875 371.890625 C 279.691406 371.285156 279.476562 370.691406 279.234375 370.105469 C 278.992188 369.519531 278.722656 368.949219 278.425781 368.390625 C 278.125 367.832031 277.800781 367.289062 277.449219 366.761719 C 277.097656 366.238281 276.722656 365.730469 276.320312 365.238281 C 275.921875 364.75 275.496094 364.28125 275.046875 363.832031 C 274.601562 363.386719 274.132812 362.960938 273.644531 362.558594 C 273.15625 362.15625 272.648438 361.78125 272.121094 361.429688 C 271.597656 361.078125 271.054688 360.753906 270.496094 360.453125 C 269.9375 360.15625 269.367188 359.886719 268.785156 359.644531 C 268.199219 359.398438 267.605469 359.1875 267 359.003906 C 266.394531 358.820312 265.78125 358.664062 265.160156 358.542969 C 264.539062 358.417969 263.914062 358.324219 263.285156 358.265625 C 262.65625 358.203125 262.023438 358.171875 261.394531 358.171875 C 260.761719 358.171875 260.128906 358.203125 259.5 358.265625 C 258.871094 358.324219 258.246094 358.417969 257.625 358.542969 C 257.003906 358.664062 256.390625 358.820312 255.785156 359.003906 C 255.179688 359.1875 254.585938 359.398438 254.003906 359.644531 C 253.417969 359.886719 252.847656 360.15625 252.289062 360.453125 C 251.730469 360.753906 251.191406 361.078125 250.664062 361.429688 C 250.136719 361.78125 249.628906 362.15625 249.140625 362.558594 C 248.652344 362.960938 248.183594 363.386719 247.738281 363.832031 C 247.289062 364.28125 246.867188 364.75 246.464844 365.238281 C 246.0625 365.730469 245.6875 366.238281 245.335938 366.761719 C 244.984375 367.289062 244.660156 367.832031 244.359375 368.390625 C 244.0625 368.949219 243.792969 369.519531 243.550781 370.105469 C 243.308594 370.691406 243.097656 371.285156 242.914062 371.890625 C 242.730469 372.496094 242.574219 373.113281 242.453125 373.734375 C 242.328125 374.355469 242.234375 374.980469 242.171875 375.609375 C 242.113281 376.238281 242.082031 376.871094 242.082031 377.503906 L 242.082031 416.171875 C 242.082031 418.070312 242.175781 419.964844 242.363281 421.855469 C 242.550781 423.742188 242.832031 425.621094 243.203125 427.480469 C 243.574219 429.34375 244.035156 431.183594 244.589844 433 C 245.140625 434.816406 245.78125 436.601562 246.507812 438.359375 C 247.234375 440.113281 248.042969 441.824219 248.9375 443.5 C 249.832031 445.175781 250.808594 446.800781 251.863281 448.378906 C 252.917969 449.960938 254.046875 451.480469 255.25 452.949219 C 256.453125 454.417969 257.726562 455.824219 259.066406 457.167969 C 260.40625 458.507812 261.8125 459.78125 263.277344 460.988281 C 264.746094 462.191406 266.265625 463.324219 267.84375 464.378906 C 269.421875 465.433594 271.042969 466.410156 272.71875 467.304688 C 274.390625 468.199219 276.101562 469.011719 277.855469 469.742188 C 279.605469 470.46875 281.390625 471.109375 283.207031 471.660156 C 285.019531 472.214844 286.859375 472.675781 288.71875 473.046875 C 290.578125 473.417969 292.453125 473.699219 294.339844 473.886719 C 296.226562 474.074219 298.121094 474.167969 300.015625 474.171875 Z M 300.015625 474.171875 " fill-opacity="1" fill-rule="nonzero"/></g><g clip-path="url(#9104914e9b)"><path fill="#000000" d="M 184.144531 377.503906 C 185.09375 377.503906 186.039062 377.433594 186.976562 377.292969 C 187.917969 377.15625 188.839844 376.945312 189.75 376.671875 C 190.65625 376.394531 191.542969 376.054688 192.398438 375.648438 C 193.257812 375.242188 194.082031 374.773438 194.871094 374.246094 C 195.660156 373.714844 196.40625 373.132812 197.109375 372.496094 C 197.816406 371.855469 198.46875 371.167969 199.070312 370.433594 C 199.671875 369.699219 200.21875 368.925781 200.707031 368.109375 C 201.195312 367.292969 201.621094 366.445312 201.984375 365.570312 C 202.347656 364.691406 202.644531 363.789062 202.875 362.867188 C 203.105469 361.945312 203.265625 361.011719 203.359375 360.066406 C 203.453125 359.121094 203.476562 358.171875 203.429688 357.222656 C 203.382812 356.273438 203.265625 355.332031 203.082031 354.398438 C 202.898438 353.46875 202.644531 352.554688 202.324219 351.660156 C 202.003906 350.765625 201.621094 349.898438 201.171875 349.058594 C 200.726562 348.222656 200.21875 347.417969 199.652344 346.65625 C 199.089844 345.890625 198.46875 345.175781 197.796875 344.503906 L 172.828125 319.503906 L 396.578125 319.503906 C 397.210938 319.503906 397.839844 319.472656 398.46875 319.410156 C 399.097656 319.347656 399.722656 319.257812 400.34375 319.132812 C 400.964844 319.007812 401.578125 318.855469 402.183594 318.671875 C 402.789062 318.488281 403.382812 318.273438 403.96875 318.03125 C 404.550781 317.789062 405.121094 317.519531 405.679688 317.222656 C 406.238281 316.921875 406.78125 316.597656 407.304688 316.246094 C 407.832031 315.894531 408.339844 315.515625 408.828125 315.117188 C 409.316406 314.714844 409.785156 314.289062 410.234375 313.839844 C 410.679688 313.394531 411.105469 312.925781 411.503906 312.4375 C 411.90625 311.945312 412.28125 311.4375 412.632812 310.910156 C 412.984375 310.386719 413.3125 309.84375 413.609375 309.285156 C 413.90625 308.726562 414.175781 308.15625 414.417969 307.570312 C 414.660156 306.984375 414.875 306.390625 415.058594 305.78125 C 415.242188 305.175781 415.394531 304.5625 415.519531 303.941406 C 415.640625 303.320312 415.734375 302.695312 415.796875 302.066406 C 415.859375 301.4375 415.890625 300.804688 415.890625 300.171875 C 415.890625 299.539062 415.859375 298.90625 415.796875 298.277344 C 415.734375 297.644531 415.640625 297.019531 415.519531 296.398438 C 415.394531 295.777344 415.242188 295.164062 415.058594 294.558594 C 414.875 293.953125 414.660156 293.355469 414.417969 292.773438 C 414.175781 292.1875 413.90625 291.617188 413.609375 291.058594 C 413.3125 290.5 412.984375 289.957031 412.632812 289.429688 C 412.28125 288.902344 411.90625 288.394531 411.503906 287.90625 C 411.105469 287.417969 410.679688 286.949219 410.234375 286.5 C 409.785156 286.050781 409.316406 285.628906 408.828125 285.226562 C 408.339844 284.824219 407.832031 284.449219 407.304688 284.097656 C 406.78125 283.742188 406.238281 283.417969 405.679688 283.121094 C 405.121094 282.820312 404.550781 282.550781 403.96875 282.308594 C 403.382812 282.066406 402.789062 281.855469 402.183594 281.671875 C 401.578125 281.484375 400.964844 281.332031 400.34375 281.210938 C 399.722656 281.085938 399.097656 280.992188 398.46875 280.929688 C 397.839844 280.867188 397.210938 280.835938 396.578125 280.835938 L 172.828125 280.835938 L 197.796875 255.839844 C 198.234375 255.390625 198.644531 254.917969 199.035156 254.429688 C 199.421875 253.9375 199.785156 253.429688 200.125 252.902344 C 200.464844 252.378906 200.777344 251.835938 201.066406 251.28125 C 201.351562 250.722656 201.613281 250.15625 201.84375 249.574219 C 202.074219 248.992188 202.277344 248.402344 202.453125 247.800781 C 202.628906 247.199219 202.773438 246.589844 202.886719 245.972656 C 203.003906 245.359375 203.089844 244.738281 203.144531 244.117188 C 203.199219 243.492188 203.222656 242.867188 203.21875 242.242188 C 203.214844 241.613281 203.175781 240.988281 203.113281 240.367188 C 203.046875 239.746094 202.949219 239.125 202.824219 238.511719 C 202.699219 237.898438 202.542969 237.292969 202.355469 236.695312 C 202.171875 236.097656 201.957031 235.511719 201.71875 234.933594 C 201.476562 234.355469 201.207031 233.789062 200.910156 233.238281 C 200.613281 232.6875 200.289062 232.152344 199.941406 231.632812 C 199.59375 231.113281 199.21875 230.609375 198.824219 230.128906 C 198.425781 229.644531 198.003906 229.179688 197.5625 228.738281 C 197.121094 228.296875 196.65625 227.875 196.175781 227.476562 C 195.691406 227.078125 195.191406 226.707031 194.671875 226.355469 C 194.152344 226.007812 193.617188 225.683594 193.066406 225.386719 C 192.515625 225.089844 191.953125 224.820312 191.375 224.578125 C 190.796875 224.335938 190.210938 224.125 189.613281 223.9375 C 189.015625 223.753906 188.410156 223.597656 187.796875 223.472656 C 187.1875 223.34375 186.566406 223.25 185.945312 223.183594 C 185.324219 223.117188 184.699219 223.082031 184.074219 223.074219 C 183.449219 223.070312 182.824219 223.09375 182.203125 223.152344 C 181.578125 223.207031 180.960938 223.292969 180.34375 223.40625 C 179.730469 223.523438 179.125 223.667969 178.523438 223.84375 C 177.921875 224.015625 177.332031 224.21875 176.75 224.453125 C 176.167969 224.683594 175.601562 224.945312 175.046875 225.230469 C 174.488281 225.519531 173.949219 225.832031 173.421875 226.171875 C 172.898438 226.511719 172.390625 226.875 171.902344 227.265625 C 171.410156 227.65625 170.941406 228.066406 170.492188 228.503906 L 112.554688 286.503906 C 110.898438 288.144531 109.582031 290.023438 108.609375 292.140625 C 107.636719 294.257812 107.0625 296.480469 106.894531 298.808594 C 106.800781 300.101562 106.839844 301.390625 107.011719 302.675781 C 107.253906 304.535156 107.753906 306.324219 108.515625 308.039062 C 109.277344 309.753906 110.269531 311.324219 111.492188 312.746094 C 111.859375 313.164062 112.226562 313.558594 112.613281 313.945312 L 170.441406 371.828125 C 171.339844 372.734375 172.316406 373.539062 173.375 374.25 C 174.433594 374.957031 175.550781 375.554688 176.726562 376.042969 C 177.902344 376.527344 179.113281 376.894531 180.363281 377.140625 C 181.609375 377.386719 182.871094 377.507812 184.144531 377.503906 Z M 184.144531 377.503906 " fill-opacity="1" fill-rule="nonzero"/></g></svg>