<svg xmlns="http://www.w3.org/2000/svg" xmlns:xlink="http://www.w3.org/1999/xlink" width="800" zoomAndPan="magnify" viewBox="0 0 600 599.999999" height="800" preserveAspectRatio="xMidYMid meet" version="1.0"><defs><clipPath id="f372f51c73"><path d="M 107.089844 91.167969 L 492.589844 91.167969 L 492.589844 508.917969 L 107.089844 508.917969 Z M 107.089844 91.167969 " clip-rule="nonzero"/></clipPath></defs><g clip-path="url(#f372f51c73)"><path fill="#000000" d="M 385.902344 91.167969 L 155.386719 91.167969 C 120.058594 91.167969 107.234375 119.992188 107.234375 139.371094 L 107.234375 460.714844 C 107.234375 496.078125 136.03125 508.917969 155.386719 508.917969 L 444.296875 508.917969 C 479.625 508.917969 492.449219 480.09375 492.449219 460.714844 L 492.449219 180.050781 Z M 203.539062 123.300781 L 283.789062 123.300781 L 283.789062 187.570312 L 331.941406 187.570312 L 331.941406 123.300781 L 364.042969 123.300781 L 364.042969 203.640625 C 364.042969 216.574219 355.214844 219.511719 347.992188 219.707031 L 219.589844 219.707031 C 206.667969 219.707031 203.730469 210.871094 203.539062 203.640625 Z M 396.144531 476.78125 L 203.539062 476.78125 L 203.539062 348.246094 L 396.144531 348.246094 Z M 460.347656 460.523438 C 460.152344 467.945312 457.234375 476.78125 444.296875 476.78125 L 428.246094 476.78125 L 428.246094 316.109375 L 171.4375 316.109375 L 171.4375 476.78125 L 155.578125 476.78125 C 148.164062 476.589844 139.335938 473.667969 139.335938 460.714844 L 139.335938 139.5625 C 139.527344 132.140625 142.464844 123.300781 155.386719 123.300781 L 171.4375 123.300781 L 171.4375 203.640625 C 171.4375 223.015625 184.261719 251.839844 219.589844 251.839844 L 347.992188 251.839844 C 367.351562 251.839844 396.144531 239.003906 396.144531 203.640625 L 396.144531 141.539062 L 460.347656 195.089844 Z M 364.042969 412.515625 L 235.640625 412.515625 L 235.640625 380.378906 L 364.042969 380.378906 Z M 364.042969 412.515625 " fill-opacity="1" fill-rule="nonzero"/></g></svg>