<svg xmlns="http://www.w3.org/2000/svg" xmlns:xlink="http://www.w3.org/1999/xlink" width="800" zoomAndPan="magnify" viewBox="0 0 600 599.999999" height="800" preserveAspectRatio="xMidYMid meet" version="1.0"><defs><clipPath id="7498463b32"><path d="M 75.726562 90 L 524.015625 90 L 524.015625 509.792969 L 75.726562 509.792969 Z M 75.726562 90 " clip-rule="nonzero"/></clipPath></defs><g clip-path="url(#7498463b32)"><path fill="#040606" d="M 241.605469 397.136719 L 207.261719 449.066406 L 213.589844 362.773438 L 447.839844 165.578125 C 445.730469 167.691406 473.074219 136.828125 241.605469 397.136719 Z M 515.140625 90.476562 C 514.421875 90.476562 524.253906 86.972656 80.34375 256.09375 C 75.410156 258.203125 74.015625 264.535156 78.234375 268.039062 L 199.539062 362.054688 L 191.140625 474.351562 C 190.425781 481.359375 200.253906 484.863281 203.757812 478.574219 L 248.652344 411.195312 L 358.054688 508.039062 C 361.558594 511.542969 367.167969 509.433594 369.238281 505.210938 L 523.578125 99.597656 C 525.644531 94.019531 520.035156 88.40625 515.140625 90.476562 " fill-opacity="1" fill-rule="nonzero"/></g></svg>